<svg xmlns="http://www.w3.org/2000/svg" width="100%" height="auto" viewBox="0 0 755 190" version="1.1" preserveAspectRatio="xMidYMid meet" style="max-width: 100%; max-height: 70vh;">
	<path d="M 89.465 45.952 C 86.615 47.107, 86.697 46.984, 71.922 72 C 42.388 122.003, 36.024 133.055, 35.452 135.334 C 33.529 142.995, 43.313 150.567, 50.316 146.837 C 53.624 145.075, 50.851 149.464, 81.963 96.750 C 88.698 85.338, 94.361 76, 94.547 76 C 94.733 76, 98.913 83.088, 103.837 91.750 C 116.303 113.681, 133.881 143.158, 135.731 145.230 C 139.472 149.423, 148.870 148.151, 151.407 143.109 C 154.479 137.001, 154.250 135.821, 147.868 124.911 C 144.519 119.185, 137.709 107.525, 132.735 99 C 127.761 90.475, 120.669 78.550, 116.975 72.500 C 113.281 66.450, 108.565 58.524, 106.494 54.886 C 101.417 45.964, 96.194 43.224, 89.465 45.952 M 432 95 L 432 140 440.799 140 L 449.599 140 449.734 95 L 449.869 50 440.934 50 L 432 50 432 95 M 468 51.273 C 464.596 52.965, 461.658 59.169, 462.483 62.923 C 462.837 64.535, 464.285 67.012, 465.700 68.427 C 467.769 70.497, 469.239 71, 473.213 71 C 477.341 71, 478.635 70.519, 481.077 68.077 C 485.399 63.755, 485.212 58.012, 480.600 53.400 C 476.886 49.686, 472.635 48.968, 468 51.273 M 180.500 78.399 C 174.165 80.402, 170.545 82.615, 167.004 86.648 C 160.257 94.333, 157.186 105.578, 159.065 115.726 C 163.317 138.698, 188.781 149.672, 204.250 135.199 L 207 132.626 207 136.313 L 207 140 215.500 140 L 224 140 224 109.500 L 224 79 215.500 79 L 207 79 207 82.500 C 207 84.425, 206.803 86, 206.562 86 C 206.321 86, 204.633 84.636, 202.812 82.968 C 199.418 79.861, 191.645 76.948, 187.068 77.067 C 185.656 77.104, 182.700 77.703, 180.500 78.399 M 270.994 77.934 C 266.097 79.424, 262.139 82.008, 259.090 85.707 L 256 89.456 256 84.228 L 256 79 247.500 79 L 239 79 239 109.500 L 239 140 247.500 140 L 256 140 256 124.149 C 256 114.953, 256.478 106.871, 257.139 104.899 C 259.584 97.597, 265.304 94, 274.468 94 L 280 94 280 85.500 L 280 77 276.750 77.086 C 274.962 77.133, 272.372 77.515, 270.994 77.934 M 306.929 78.304 C 297.323 81.027, 290.404 86.595, 285.702 95.384 C 283.854 98.839, 283.500 101.106, 283.501 109.500 C 283.501 118.419, 283.792 120.050, 286.187 124.590 C 289.462 130.800, 294.603 135.458, 301.954 138.877 C 306.530 141.005, 308.991 141.460, 316.021 141.478 C 323.657 141.498, 325.236 141.159, 331.218 138.213 C 343.342 132.245, 349.513 122.169, 349.453 108.441 C 349.428 102.805, 348.866 100.246, 346.661 95.739 C 343.283 88.835, 335.693 81.775, 329.244 79.539 C 322.763 77.291, 312.504 76.723, 306.929 78.304 M 393.500 77.491 C 392.950 77.675, 391.297 78.089, 389.827 78.412 C 388.357 78.735, 385.058 80.600, 382.496 82.555 L 377.838 86.111 378.169 82.805 L 378.500 79.500 369.750 79.211 L 361 78.922 361 109.461 L 361 140 369.750 139.998 L 378.500 139.996 378.500 121.248 C 378.500 101.071, 379.132 98.123, 384.217 94.561 C 387.613 92.182, 393.395 92.576, 396.694 95.412 L 399.500 97.823 399.806 118.912 L 400.112 140 409.172 140 L 418.232 140 417.798 116.750 C 417.396 95.238, 417.197 93.154, 415.131 88.877 C 413.904 86.334, 411.896 83.312, 410.671 82.161 C 406.898 78.616, 397.659 76.104, 393.500 77.491 M 525.684 78.449 C 521.947 79.781, 518.765 82.003, 516.298 85 C 515.201 86.333, 515.048 86.333, 514.921 85 C 514.843 84.175, 514.861 82.487, 514.961 81.250 C 515.138 79.069, 514.866 79, 506.072 79 L 497 79 497 109.500 L 497 140 506 140 L 515 140 515 121.401 C 515 101.518, 515.763 97.680, 520.353 94.465 C 523.709 92.115, 530.670 92.579, 533.428 95.337 C 536.282 98.191, 536.825 103.172, 536.634 124.746 L 536.500 139.992 545.329 139.996 L 554.159 140 553.829 116.250 C 553.521 94.012, 553.357 92.210, 551.253 87.940 C 546.732 78.766, 535.983 74.776, 525.684 78.449 M 588.286 78.386 C 574.803 82.807, 566.839 92.678, 565.363 106.797 C 563.990 119.935, 570.868 132.566, 582.644 138.533 C 587.990 141.241, 589.371 141.498, 598.500 141.477 C 607.293 141.457, 609.166 141.129, 614.018 138.764 C 620.968 135.376, 627.210 129.272, 625 128.025 C 624.175 127.559, 621.516 125.654, 619.090 123.791 L 614.680 120.405 611.766 123.066 C 603.651 130.478, 588.668 129.143, 584.638 120.649 C 581.353 113.728, 580.494 114, 605.632 114 L 628.263 114 627.794 106.750 C 626.999 94.474, 620.841 84.496, 611.288 80.005 C 605.407 77.241, 594.186 76.451, 588.286 78.386 M 464.998 109.250 L 465 140 473.500 140 L 482 140 482 109.573 L 482 79.147 473.498 78.823 L 464.995 78.500 464.998 109.250 M 590.241 92.995 C 587.326 94.772, 583.014 100.287, 583.004 102.250 C 583.002 102.662, 589.525 103, 597.500 103 C 605.475 103, 612 102.753, 612 102.450 C 612 100.775, 608.659 95.891, 605.959 93.619 C 602.023 90.307, 595.100 90.032, 590.241 92.995 M 184.256 94.645 C 174.467 99.471, 173.573 115.759, 182.715 122.731 C 188.951 127.488, 200.473 125.786, 204.592 119.499 C 209.377 112.197, 208.201 102.221, 201.881 96.512 C 198.465 93.426, 197.358 93.003, 192.747 93.023 C 189.861 93.035, 186.040 93.765, 184.256 94.645 M 307.990 95.250 C 300.248 100.519, 298.001 108.916, 302.185 116.941 C 305.562 123.420, 308.919 125.500, 316 125.500 C 322.560 125.500, 325.885 123.688, 329.750 118.010 C 334.297 111.329, 331.643 99.192, 324.710 94.965 C 320.150 92.184, 312.298 92.318, 307.990 95.250 M 87.190 117.026 C 83.848 119.063, 81 124.143, 81 128.067 C 81 134.354, 87.967 141, 94.559 141 C 101.423 141, 108.004 134.576, 107.996 127.882 C 107.985 117.828, 96.070 111.611, 87.190 117.026" stroke="none" fill="black" fill-rule="evenodd"/>
</svg>